HIERARCHY
ROOT hip
{
  OFFSET 0 0 0
  CHANNELS 6 Xposition Yposition Zposition Zrotation Yrotation Xrotation
  JOINT abdomen
  {
    OFFSET 0 20.6881 -0.73152
    CHANNELS 3 Zrotation Xrotation Yrotation
    JOINT chest
    {
      OFFSET 0 11.7043 -0.48768
      CHANNELS 3 Zrotation Xrotation Yrotation
      JOINT neck
      {
        OFFSET 0 22.1894 -2.19456
        CHANNELS 3 Zrotation Xrotation Yrotation
        JOINT head
        {
          OFFSET -0.24384 7.07133 1.2192
          CHANNELS 3 Zrotation Xrotation Yrotation
          JOINT leftEye
          {
            OFFSET 4.14528 8.04674 8.04672
            CHANNELS 3 Zrotation Xrotation Yrotation
            End Site
            {
              OFFSET 1 0 0
            }
          }
          JOINT rightEye
          {
            OFFSET -3.6576 8.04674 8.04672
            CHANNELS 3 Zrotation Xrotation Yrotation
            End Site
            {
              OFFSET 1 0 0
            }
          }
        }
      }
      JOINT rCollar
      {
        OFFSET -2.68224 19.2634 -4.8768
        CHANNELS 3 Zrotation Xrotation Yrotation
        JOINT rShldr
        {
          OFFSET -8.77824 -1.95073 1.46304
          CHANNELS 3 Zrotation Xrotation Yrotation
          JOINT rForeArm
          {
            OFFSET -28.1742 -1.7115 0.48768
            CHANNELS 3 Zrotation Xrotation Yrotation
            JOINT rHand
            {
              OFFSET -22.5879 0.773209 7.07136
              CHANNELS 3 Zrotation Xrotation Yrotation
              JOINT rThumb1
              {
                OFFSET -1.2192 -0.487915 3.41376
                CHANNELS 3 Zrotation Xrotation Yrotation
                JOINT rThumb2
                {
                  OFFSET -3.37035 -0.52449 3.41376
                  CHANNELS 3 Zrotation Xrotation Yrotation
                  End Site
                  {
                    OFFSET -1.78271 -1.18214 1.43049
                  }
                }
              }
              JOINT rIndex1
              {
                OFFSET -7.75947 0.938293 5.60832
                CHANNELS 3 Zrotation Xrotation Yrotation
                JOINT rIndex2
                {
                  OFFSET -2.54057 -0.884171 1.56538
                  CHANNELS 3 Zrotation Xrotation Yrotation
                  End Site
                  {
                    OFFSET -1.62519 -0.234802 1.16502
                  }
                }
              }
              JOINT rMid1
              {
                OFFSET -8.24714 1.18213 3.41376
                CHANNELS 3 Zrotation Xrotation Yrotation
                JOINT rMid2
                {
                  OFFSET -3.10165 -0.590103 1.0647
                  CHANNELS 3 Zrotation Xrotation Yrotation
                  End Site
                  {
                    OFFSET -2.48547 -0.328903 0.83742
                  }
                }
              }
              JOINT rRing1
              {
                OFFSET -8.82822 0.546677 1.51678
                CHANNELS 3 Zrotation Xrotation Yrotation
                JOINT rRing2
                {
                  OFFSET -2.60934 -0.819778 -0.0198488
                  CHANNELS 3 Zrotation Xrotation Yrotation
                  End Site
                  {
                    OFFSET -2.33842 -0.294052 0.168128
                  }
                }
              }
              JOINT rPinky1
              {
                OFFSET -8.27202 -0.0477905 -0.4584
                CHANNELS 3 Zrotation Xrotation Yrotation
                JOINT rPinky2
                {
                  OFFSET -1.82734 -0.647385 -0.700984
                  CHANNELS 3 Zrotation Xrotation Yrotation
                  End Site
                  {
                    OFFSET -1.69225 -0.51767 -0.607171
                  }
                }
              }
            }
          }
        }
      }
      JOINT lCollar
      {
        OFFSET 2.68224 19.2634 -4.8768
        CHANNELS 3 Zrotation Xrotation Yrotation
        JOINT lShldr
        {
          OFFSET 8.77824 -1.95073 1.46304
          CHANNELS 3 Zrotation Xrotation Yrotation
          JOINT lForeArm
          {
            OFFSET 28.1742 -1.7115 0.48768
            CHANNELS 3 Zrotation Xrotation Yrotation
            JOINT lHand
            {
              OFFSET 22.5879 0.773209 7.07136
              CHANNELS 3 Zrotation Xrotation Yrotation
              JOINT lThumb1
              {
                OFFSET 1.2192 -0.487915 3.41376
                CHANNELS 3 Zrotation Xrotation Yrotation
                JOINT lThumb2
                {
                  OFFSET 3.37035 -0.52449 3.41376
                  CHANNELS 3 Zrotation Xrotation Yrotation
                  End Site
                  {
                    OFFSET 1.78271 -1.18214 1.43049
                  }
                }
              }
              JOINT lIndex1
              {
                OFFSET 7.75947 0.938293 5.60832
                CHANNELS 3 Zrotation Xrotation Yrotation
                JOINT lIndex2
                {
                  OFFSET 2.54057 -0.884171 1.56538
                  CHANNELS 3 Zrotation Xrotation Yrotation
                  End Site
                  {
                    OFFSET 1.62519 -0.234802 1.16502
                  }
                }
              }
              JOINT lMid1
              {
                OFFSET 8.24714 1.18213 3.41376
                CHANNELS 3 Zrotation Xrotation Yrotation
                JOINT lMid2
                {
                  OFFSET 3.10165 -0.590103 1.0647
                  CHANNELS 3 Zrotation Xrotation Yrotation
                  End Site
                  {
                    OFFSET 2.48547 -0.328903 0.83742
                  }
                }
              }
              JOINT lRing1
              {
                OFFSET 8.82822 0.546677 1.51678
                CHANNELS 3 Zrotation Xrotation Yrotation
                JOINT lRing2
                {
                  OFFSET 2.60934 -0.819778 -0.0198488
                  CHANNELS 3 Zrotation Xrotation Yrotation
                  End Site
                  {
                    OFFSET 2.33842 -0.294052 0.168128
                  }
                }
              }
              JOINT lPinky1
              {
                OFFSET 8.27202 -0.0477905 -0.4584
                CHANNELS 3 Zrotation Xrotation Yrotation
                JOINT lPinky2
                {
                  OFFSET 1.82734 -0.647385 -0.700984
                  CHANNELS 3 Zrotation Xrotation Yrotation
                  End Site
                  {
                    OFFSET 1.69225 -0.51767 -0.607171
                  }
                }
              }
            }
          }
        }
      }
    }
  }
  JOINT rButtock
  {
    OFFSET -8.77824 4.35084 1.2192
    CHANNELS 3 Zrotation Xrotation Yrotation
    JOINT rThigh
    {
      OFFSET 0 -1.70687 -2.19456
      CHANNELS 3 Zrotation Xrotation Yrotation
      JOINT rShin
      {
        OFFSET 0 -36.8199 0.73152
        CHANNELS 3 Zrotation Xrotation Yrotation
        JOINT rFoot
        {
          OFFSET 0.73152 -45.1104 -5.12064
          CHANNELS 3 Zrotation Xrotation Yrotation
          End Site
          {
            OFFSET -1.1221 -3.69964 12.103
          }
        }
      }
    }
  }
  JOINT lButtock
  {
    OFFSET 8.77824 4.35084 1.2192
    CHANNELS 3 Zrotation Xrotation Yrotation
    JOINT lThigh
    {
      OFFSET 0 -1.70687 -2.19456
      CHANNELS 3 Zrotation Xrotation Yrotation
      JOINT lShin
      {
        OFFSET 0 -36.8199 0.73152
        CHANNELS 3 Zrotation Xrotation Yrotation
        JOINT lFoot
        {
          OFFSET -0.73152 -45.1104 -5.12064
          CHANNELS 3 Zrotation Xrotation Yrotation
          End Site
          {
            OFFSET 1.1221 -3.69964 12.103
          }
        }
      }
    }
  }
}
MOTION
Frames:	8
Frame Time:	0.00833333
0.0 0.0 0.0 0.0 0.0 0.0 0.0 0.0 0.0 0.0 0.0 0.0 0.0 0.0 0.0 0.0 0.0 0.0 0.0 0.0 0.0 0.0 0.0 0.0 0.0 0.0 0.0 0.0 0.0 0.0 0.0 0.0 0.0 0.0 0.0 0.0 0.0 0.0 0.0 0.0 0.0 0.0 0.0 0.0 0.0 0.0 0.0 0.0 0.0 0.0 0.0 0.0 0.0 0.0 0.0 0.0 0.0 0.0 0.0 0.0 0.0 0.0 0.0 0.0 0.0 0.0 0.0 0.0 0.0 0.0 0.0 0.0 0.0 0.0 0.0 0.0 0.0 0.0 0.0 0.0 0.0 0.0 0.0 0.0 0.0 0.0 0.0 0.0 0.0 0.0 0.0 0.0 0.0 0.0 0.0 0.0 0.0 0.0 0.0 0.0 0.0 0.0 0.0 0.0 0.0 0.0 0.0 0.0 0.0 0.0 0.0 0.0 0.0 0.0 0.0 0.0 0.0 0.0 0.0 0.0 0.0 0.0 0.0 0.0 0.0 0.0 0.0 0.0 0.0 0.0 0.0 0.0
1.252 66.8575 -0.5598 7.414385 -38.240473 -1.198195 -8.336579 10.972475 111.497004 -9.743919 -6.001085 -114.393852 -7.184775 15.722403 11.156447 -1.161429 -26.7646 -47.003503 0.000413 0.0 0.001151 0.000413 0.0 0.001151 -153.652804 7.091021 159.413636 -177.842074 -74.511532 -136.281711 -163.568494 -63.574794 -81.701109 -19.037147 -59.770026 -18.820364 -171.603441 -9.286255 89.949768 -40.431485 -21.664388 6.221002 -138.49312 4.896639 114.865478 -159.237093 -6.400197 118.586681 -36.036715 51.722691 29.833076 -163.095051 -4.756418 143.255113 0.001663 0.063855 0.019926 -154.918825 5.496252 171.129296 -162.362374 72.06372 -150.904492 -138.432445 -13.254731 -134.23595 150.119724 21.701197 -155.219895 -98.609934 34.480213 81.450766 165.114083 -84.585302 -66.516472 164.86194 9.476585 -139.902239 -88.927904 -50.830996 -37.600401 166.838892 -59.550415 -139.45189 -10.21034 -18.050964 4.564342 7.678283 26.184655 -7.956345 160.673919 -6.668124 -143.243674 147.961496 31.448044 -134.123029 145.100313 -1.522311 178.650408 -10.894118 6.911402 8.157757 144.111597 8.781805 140.873792 79.16133 -52.706208 78.773164 -179.998202 75.749616 -0.00123 159.486169 3.752179 -99.920764 -74.703248 -17.317455 173.625428 -59.787073 57.782429 -16.522631 -179.976058 75.749615 -0.018454 -150.971742 63.330974 -180.0 -51.393041 -47.381238 -141.549739 -26.165152 -0.250717 -70.091104
2.0763 66.8636 -0.7231 7.000422 -38.805339 -1.151795 -3.963417 10.524995 -130.642065 1.458774 7.718898 127.425464 3.899979 25.414517 97.817056 -35.952066 11.419286 -129.700325 0.002677 0.0 0.002169 -0.003054 0.0 -0.003299 -142.973625 39.431649 147.390142 153.358373 31.285499 150.539046 173.083032 -14.115539 52.728223 -125.362704 41.368896 112.031577 -171.653573 -9.336271 89.949199 177.165274 -18.817135 95.286325 -151.679226 -17.764772 121.23723 -62.116241 57.366648 46.067181 -32.161245 49.423924 26.233171 3.375604 0.07836 0.067932 0.005725 1.770263 0.557385 -156.258093 -13.738994 173.485386 -1.147908 -2.914418 -1.067253 2.556465 0.03701 0.029493 -3.737284 -33.150879 6.413621 -107.233044 -16.681727 -89.522138 114.918865 85.288836 151.818895 9.619999 -21.743461 5.918882 171.653825 -9.336087 -89.949731 177.170509 -13.76073 -93.03273 59.741822 42.589875 -48.393999 89.679792 50.34487 -66.200975 160.393638 -5.805672 -143.112351 5.105059 21.251308 -4.816668 0.013651 -1.32307 0.416433 155.296545 -0.943735 -171.962057 26.5624 -38.861417 25.605594 -11.329009 26.150001 -5.823737 -179.994385 75.748926 -0.003842 160.347634 4.156895 -101.474142 -72.395098 -31.62278 31.243285 -1.06472 -30.808208 80.626992 179.981384 75.751226 0.012737 -150.898818 63.747293 -101.734784 -66.020469 11.249326 -38.466122 -145.774108 28.06224 -148.957748
3.0467 66.8975 -0.8682000000000001 6.810631 -39.410273 -1.268503 -3.233264 13.023784 -71.773779 9.259818 1.467394 68.433978 -15.366206 19.249918 -37.970512 30.071493 -15.927397 9.452833 0.002008 -0.0 -0.003448 0.002498 -0.0 -0.002152 -159.220925 -48.028558 170.414803 122.395781 41.455068 -120.826685 -5.136848 -22.183101 87.247487 -20.020883 -62.22246 -20.532963 -176.597787 -14.213378 89.690791 -83.483334 10.628694 28.831257 -6.815907 10.182194 4.245256 -161.96498 -12.542221 110.128954 34.58823 -70.943719 9.314824 -163.934977 -6.171298 143.344157 0.005836 0.917665 0.289055 -77.473357 78.796824 90.809873 -25.54004 -38.086376 -24.599961 -150.258931 24.130318 -146.003943 142.702076 39.918766 -147.100426 -126.753757 29.116675 116.195451 -41.726044 73.777885 -53.483444 13.41938 -7.765233 3.491732 -93.028626 -51.083854 -40.500653 90.823583 38.131891 -50.981264 1.956575 3.105496 -1.141167 86.656452 47.215962 -67.60931 82.840577 61.110807 -74.532301 175.010146 -39.042562 -143.15669 145.119728 0.185157 179.187376 73.703491 -78.004024 95.208526 -1.299763 3.491442 -1.192041 112.514625 -44.332777 111.400849 -0.003349 -0.001964 -0.003349 -45.421135 -61.868887 -49.00931 -38.461876 60.87876 62.125821 -131.366973 -14.54362 28.39055 0.000934 0.000726 0.0014 10.550591 -11.122518 -180.0 -26.099279 -64.029141 -127.074118 -85.519711 32.802938 -13.862285
4.1796 66.9543 -1.1291 6.560796 -40.085012 -1.29655 -5.246115 14.73508 1.125913 6.325984 -9.910459 -3.335225 3.894033 22.358453 80.931331 -35.463252 1.36384 -113.939766 0.002648 0.0 0.002314 -0.003566 -0.0 0.001216 -150.169118 21.535467 155.275803 -51.042123 17.279987 8.245592 66.055231 -40.11586 -82.791381 -79.731359 47.942306 64.485237 -85.829572 38.631767 47.955291 -80.246317 -2.759448 61.000975 -152.105442 -18.556428 121.367962 3.776663 14.746665 -6.927573 -86.294379 60.959293 77.857592 -144.871718 36.172415 132.004311 -145.119046 0.184974 -179.187604 11.945023 52.75589 -2.718241 12.250589 41.425045 10.283002 -25.082214 -41.100076 -25.146157 59.8262 -86.722183 81.626706 -98.667854 -33.173299 -33.904453 -124.214296 15.859658 49.19792 34.009234 36.956506 -14.227176 13.602591 12.630224 -3.55088 128.06197 -27.453844 -108.401991 9.377714 13.535023 -6.014405 172.093936 -25.799247 -108.874496 -0.539641 -1.590101 0.295942 151.780865 24.962431 -137.170458 0.000318 -0.06082 0.019282 -10.77544 -6.942722 0.913423 140.390828 -1.530805 137.473275 162.108808 55.905396 146.738152 -179.765516 75.75131 -0.180732 161.071399 6.411053 1.805265 -51.490606 63.952179 -42.301342 131.536487 -52.919852 -124.005865 -179.992963 75.749371 -0.00726 -157.581581 64.331841 -24.594264 2.997709 60.202968 -35.292328 -5.093888 -46.803007 55.41607
5.4289 67.0513 -1.3052 6.070398 -41.01359 -1.080002 -4.846654 14.781498 0.0 6.269098 -9.678322 -2.222695 -2.496279 16.012873 29.507315 -15.425076 -24.676439 -64.934894 -0.002356 0.0 -0.003266 -0.002356 0.0 -0.003266 -153.593233 -75.693665 -178.263327 -164.375108 8.376189 -133.950886 -51.316946 69.360205 -74.697347 -144.826366 24.127273 133.568298 -169.984989 -7.667009 89.939873 143.913948 -46.993327 96.473285 -26.599193 30.072879 19.415443 -163.803365 -11.764391 110.987092 -167.298345 -27.767874 145.258297 2.796416 1.007993 0.486291 -74.839452 72.960663 92.828085 -65.212937 83.128429 74.018673 -4.889873 -11.338031 -4.583001 14.804279 41.762455 8.450028 150.168879 21.53556 -155.276109 -7.098962 -1.874993 58.643205 175.404089 -3.509531 91.344697 10.022681 -18.713891 5.439476 78.030944 38.689139 -42.412464 -15.521402 -21.803041 -21.043867 156.111325 -25.994449 -122.312096 -107.960298 -71.115281 -52.874778 169.089329 -33.247337 -145.375519 170.363825 -25.724806 -143.910887 145.118402 0.268432 179.211106 156.510976 15.230287 -178.990012 -44.754745 86.37705 5.38853 -14.477998 41.881564 -7.107301 0.003191 -0.001057 0.003191 -40.148059 -63.557245 -107.734272 -72.760533 -2.421402 -0.582904 86.548767 74.33574 -0.066841 -0.005625 -0.000381 -0.005625 7.408233 -11.65989 109.0117 66.559575 -20.181486 171.586799 92.289024 -48.099076 166.363427
6.887899999999999 67.1994 -1.4436 5.708285 -41.864351 -1.042865 -4.627389 14.861843 1.002567 6.043382 -9.682858 -3.334982 -15.113571 20.392016 -46.498579 33.79627 -12.753702 20.241349 0.001983 0.0 0.003621 0.001827 -0.0 -0.001951 -44.040377 64.186846 46.710772 -174.900116 -3.519818 113.737099 6.695862 67.170316 92.317078 -18.658945 -52.502955 -14.936197 1.842383 -1.827156 -0.254138 -11.239492 11.792103 8.526929 -150.367615 -15.334806 120.800557 -87.901838 56.533176 69.212427 -0.218431 0.63869 0.12236 -170.274429 -26.252056 144.302507 -145.115448 -0.355511 -179.014874 -154.127114 -12.521367 -177.50307 -5.516548 -12.59586 -5.17609 -120.513234 -37.988193 -119.451958 155.416666 -2.951334 -161.718992 -64.258027 16.670547 50.648607 148.347231 63.700574 116.308168 7.469844 -29.071474 6.813095 -51.059542 -41.204253 -12.856369 9.767607 -23.948521 24.07908 90.226502 41.073017 -75.796406 101.231387 50.103442 -75.996616 0.056788 0.167924 -0.033103 163.255615 -4.709451 -143.347972 145.119035 0.267077 179.213886 151.858192 -28.050503 174.715832 23.391612 -36.348982 22.494208 147.037153 12.934984 143.719073 179.985002 75.748416 0.013233 164.018737 6.243553 -110.793896 -60.646642 -41.252368 45.849676 135.870119 19.257075 -50.149402 179.99704 75.749834 -0.0 -162.874753 64.03287 -34.94919 -29.817515 63.455152 -56.706484 2.292513 64.118599 102.551126
8.4943 67.4354 -1.5782 5.526555 -42.570009 -0.989664 -4.394656 14.916692 0.956069 5.992784 -9.571665 -3.385192 2.950216 19.571245 63.374045 -32.224802 -9.710015 -96.284673 0.001304 -0.0 -0.001423 0.001881 -0.0 -9.3e-05 -159.220363 -48.028354 170.415865 83.662359 52.910346 -98.469217 -12.313912 9.118686 100.757869 -23.981233 -69.841141 -27.464407 -0.491495 0.484687 0.077878 -76.323926 25.709303 69.936026 16.96831 -30.493434 -5.899221 -3.728113 24.004758 5.796256 7.298787 -22.872509 -2.895416 29.311302 -60.23089 6.435329 -0.000156 -0.018496 -0.005918 10.743321 -6.444636 -0.853776 -126.797358 -26.61823 -124.510974 -136.881486 -12.860113 -134.138335 159.221842 -48.725103 -170.566847 -78.835114 28.848302 13.588561 145.580869 -73.808664 -84.997331 167.397566 2.485381 -141.892638 155.113059 6.91829 -87.738945 -7.841262 -48.472348 -19.070886 166.40852 -43.367214 -122.14732 153.297996 -4.307852 -118.68706 -34.586447 -70.944071 -9.311637 171.343876 -28.535421 -144.067905 132.479979 54.102646 -155.532874 -4.312601 -26.271256 10.741195 -1.135399 3.04049 -1.043438 146.299176 8.138972 142.820195 -6.9e-05 -0.000998 8.8e-05 -36.151062 -61.806252 -33.107799 -40.753149 56.157272 -28.820859 147.883981 3.192456 -68.521283 -179.999934 75.748971 -4.5e-05 -167.358999 62.046228 -180.0 -55.115058 -52.591617 -169.006185 -118.933974 21.678835 10.141794
